<svg width="183" height="32" xmlns="http://www.w3.org/2000/svg"><g fill="#2D3033" fill-rule="evenodd"><path d="M15.672 0c8.673 0 15.703 7.03 15.703 15.702-2.71-11.167-14.95-12.784-20.532-9.893-3.637 1.883-7.89 7.863-4.48 14.368C2.061 17.702.65 6.253 8.346 1.811 10.488.573 13.026 0 15.672 0m15.142 20.078c-1.514 5.65-6.215 9.987-12.02 11.145-1.37.273-3.34.363-4.731.22C6.162 30.624 0 23.948 0 15.832c0-3.645 1.242-6.999 3.326-9.663-3.361 7.144-.894 16.15 7.711 16.2-.43 3.084 2.96 2.297 3.87 5.49l.26 1.127c-1.123 1.275.197 2.314 1.518 1.765.885-.367 1.044-1.86-.217-2.123-.34-.688-.474-1.111-.666-1.943-.373-1.615.238-2.988 2.33-2.17 1.024.403 1.93.926 2.9 1.384.034.471.325.887.817 1.08.772.302 1.925.01 2.357-.738.433-.749-.017-1.67-.79-1.972-.454-.177-.98-.125-1.423.1-1.041-.341-2.141-.623-3.136-1.012-2.276-.893-1.604-2.144.265-2.293 1.025-.08 2.06-.198 2.965-.442.634.453 1.877.304 2.344-.506.433-.748.166-1.599-.606-1.901-1.233-.45-2.078.573-2.054 1.18-3.291 2.26-14.715.394-14.658-2.386.186-2.174 2.556-4.298 5.668-5.924.446-1.227 2.383-2.005 3.273-1.262 3.209-1.065 7.42-1.185 9.376.863 1.667.325 6.794 4.13 5.384 9.391M17.85 14.582c1.164.033 1.973.816 1.807 1.75-.165.932-1.241 1.661-2.405 1.629-1.163-.034-1.972-.816-1.807-1.749.165-.933 1.242-1.662 2.405-1.63"/><path d="M49.88 8.14v2.66H45.7V22h-3.12V10.8H38.4V8.14h11.48zm5.76 5.98c-.267-.067-.58-.137-.94-.21a5.382 5.382 0 0 0-1.83-.06c-.26.033-.457.07-.59.11V22H49.3v-9.96a17.9 17.9 0 0 1 1.89-.53 10.89 10.89 0 0 1 2.43-.25c.16 0 .353.01.58.03a11.803 11.803 0 0 1 1.36.2 3.2 3.2 0 0 1 .58.17l-.5 2.46zm4.92 5.8c.293 0 .573-.007.84-.02.267-.013.48-.033.64-.06v-2.26c-.12-.027-.3-.053-.54-.08a6.014 6.014 0 0 0-1.45.01 2.064 2.064 0 0 0-.65.19c-.187.093-.333.22-.44.38-.107.16-.16.36-.16.6 0 .467.157.79.47.97.313.18.743.27 1.29.27zm-.24-8.72c.88 0 1.613.1 2.2.3.587.2 1.057.487 1.41.86s.603.827.75 1.36c.147.533.22 1.127.22 1.78v6.2c-.427.093-1.02.203-1.78.33s-1.68.19-2.76.19a8.75 8.75 0 0 1-1.85-.18 4.015 4.015 0 0 1-1.43-.59 2.7 2.7 0 0 1-.92-1.07c-.213-.44-.32-.98-.32-1.62 0-.613.123-1.133.37-1.56.247-.427.577-.767.99-1.02a4.474 4.474 0 0 1 1.42-.55 7.966 7.966 0 0 1 1.66-.17c.387 0 .73.017 1.03.05.3.033.543.077.73.13v-.28c0-.507-.153-.913-.46-1.22-.307-.307-.84-.46-1.6-.46-.507 0-1.007.037-1.5.11-.493.073-.92.177-1.28.31l-.38-2.4a11.46 11.46 0 0 1 1.5-.33c.307-.047.63-.087.97-.12.34-.033.683-.05 1.03-.05zm8.82 5.46c0 .92.207 1.66.62 2.22.413.56 1.027.84 1.84.84.267 0 .513-.01.74-.03.227-.02.413-.043.56-.07V14.2a2.59 2.59 0 0 0-.73-.3c-.3-.08-.603-.12-.91-.12-1.413 0-2.12.96-2.12 2.88zm6.74 5c-.267.08-.573.157-.92.23-.347.073-.71.137-1.09.19-.38.053-.767.097-1.16.13-.393.033-.77.05-1.13.05-.867 0-1.64-.127-2.32-.38a4.66 4.66 0 0 1-1.72-1.09 4.73 4.73 0 0 1-1.07-1.72c-.247-.673-.37-1.43-.37-2.27 0-.853.107-1.623.32-2.31.213-.687.52-1.27.92-1.75s.89-.847 1.47-1.1c.58-.253 1.243-.38 1.99-.38.413 0 .783.04 1.11.12.327.08.657.193.99.34V6.96l2.98-.48v15.18zm1.3-4.84c0-.933.143-1.75.43-2.45.287-.7.663-1.283 1.13-1.75a4.7 4.7 0 0 1 1.61-1.06 5.04 5.04 0 0 1 1.87-.36c1.493 0 2.673.457 3.54 1.37s1.3 2.257 1.3 4.03c0 .173-.007.363-.02.57-.013.207-.027.39-.04.55h-6.76c.067.613.353 1.1.86 1.46.507.36 1.187.54 2.04.54.547 0 1.083-.05 1.61-.15.527-.1.957-.223 1.29-.37l.4 2.42c-.16.08-.373.16-.64.24-.267.08-.563.15-.89.21-.327.06-.677.11-1.05.15-.373.04-.747.06-1.12.06-.947 0-1.77-.14-2.47-.42-.7-.28-1.28-.663-1.74-1.15a4.564 4.564 0 0 1-1.02-1.73 6.853 6.853 0 0 1-.33-2.16zm7-1.14a3.076 3.076 0 0 0-.13-.74 1.848 1.848 0 0 0-.34-.64 1.81 1.81 0 0 0-.58-.46c-.233-.12-.523-.18-.87-.18-.333 0-.62.057-.86.17-.24.113-.44.263-.6.45-.16.187-.283.403-.37.65-.087.247-.15.497-.19.75h3.94zm11.14-5.14c-1.453 0-2.503.403-3.15 1.21-.647.807-.97 1.91-.97 3.31 0 .68.08 1.297.24 1.85.16.553.4 1.03.72 1.43.32.4.72.71 1.2.93.48.22 1.04.33 1.68.33.347 0 .643-.007.89-.02.247-.013.463-.04.65-.08v-4.82h3.12v6.86c-.373.147-.973.303-1.8.47-.827.167-1.847.25-3.06.25-1.04 0-1.983-.16-2.83-.48a5.917 5.917 0 0 1-2.17-1.4c-.6-.613-1.063-1.367-1.39-2.26-.327-.893-.49-1.913-.49-3.06 0-1.16.18-2.187.54-3.08.36-.893.853-1.65 1.48-2.27a6.24 6.24 0 0 1 2.21-1.41c.847-.32 1.75-.48 2.71-.48a10.96 10.96 0 0 1 3.13.43 6.312 6.312 0 0 1 1.47.63l-.9 2.5a8.133 8.133 0 0 0-1.47-.59 6.252 6.252 0 0 0-1.81-.25zm5.58 6.28c0-.933.143-1.75.43-2.45.287-.7.663-1.283 1.13-1.75a4.7 4.7 0 0 1 1.61-1.06 5.04 5.04 0 0 1 1.87-.36c1.493 0 2.673.457 3.54 1.37s1.3 2.257 1.3 4.03c0 .173-.007.363-.02.57-.013.207-.027.39-.04.55h-6.76c.067.613.353 1.1.86 1.46.507.36 1.187.54 2.04.54.547 0 1.083-.05 1.61-.15.527-.1.957-.223 1.29-.37l.4 2.42c-.16.08-.373.16-.64.24-.267.08-.563.15-.89.21-.327.06-.677.11-1.05.15-.373.04-.747.06-1.12.06-.947 0-1.77-.14-2.47-.42-.7-.28-1.28-.663-1.74-1.15a4.564 4.564 0 0 1-1.02-1.73 6.853 6.853 0 0 1-.33-2.16zm7-1.14a3.076 3.076 0 0 0-.13-.74 1.848 1.848 0 0 0-.34-.64 1.81 1.81 0 0 0-.58-.46c-.233-.12-.523-.18-.87-.18-.333 0-.62.057-.86.17-.24.113-.44.263-.6.45-.16.187-.283.403-.37.65-.087.247-.15.497-.19.75h3.94zm3.68 1.06c0-.76.123-1.477.37-2.15a5.138 5.138 0 0 1 1.07-1.76 5.106 5.106 0 0 1 1.7-1.19c.667-.293 1.427-.44 2.28-.44.56 0 1.073.05 1.54.15.467.1.92.243 1.36.43l-.62 2.38a7.51 7.51 0 0 0-.92-.28 4.808 4.808 0 0 0-1.12-.12c-.88 0-1.537.273-1.97.82-.433.547-.65 1.267-.65 2.16 0 .947.203 1.68.61 2.2.407.52 1.117.78 2.13.78.36 0 .747-.033 1.16-.1a4.931 4.931 0 0 0 1.14-.32l.42 2.44c-.347.147-.78.273-1.3.38-.52.107-1.093.16-1.72.16-.96 0-1.787-.143-2.48-.43-.693-.287-1.263-.677-1.71-1.17a4.564 4.564 0 0 1-.98-1.75 7.43 7.43 0 0 1-.31-2.19zm12.48-1.46c.293-.32.597-.653.91-1 .313-.347.617-.69.91-1.03.293-.34.57-.663.83-.97.26-.307.483-.573.67-.8h3.54c-.707.813-1.397 1.59-2.07 2.33a57.44 57.44 0 0 1-2.21 2.29c.4.36.813.79 1.24 1.29.427.5.84 1.017 1.24 1.55a22.88 22.88 0 0 1 1.94 3.06h-3.42a54.32 54.32 0 0 0-.73-1.15c-.273-.42-.563-.84-.87-1.26-.307-.42-.63-.823-.97-1.21a8.1 8.1 0 0 0-1.01-.98V22h-2.98V6.96l2.98-.48v8.8zm16.72 1.44c0 .827-.12 1.583-.36 2.27a4.932 4.932 0 0 1-1.04 1.76 4.68 4.68 0 0 1-1.63 1.13c-.633.267-1.343.4-2.13.4-.773 0-1.477-.133-2.11-.4a4.68 4.68 0 0 1-1.63-1.13 5.174 5.174 0 0 1-1.06-1.76c-.253-.687-.38-1.443-.38-2.27s.13-1.58.39-2.26c.26-.68.62-1.26 1.08-1.74a4.85 4.85 0 0 1 1.64-1.12 5.28 5.28 0 0 1 2.07-.4c.76 0 1.457.133 2.09.4.633.267 1.177.64 1.63 1.12.453.48.807 1.06 1.06 1.74.253.68.38 1.433.38 2.26zm-3.04 0c0-.92-.183-1.643-.55-2.17-.367-.527-.89-.79-1.57-.79s-1.207.263-1.58.79-.56 1.25-.56 2.17c0 .92.187 1.65.56 2.19.373.54.9.81 1.58.81s1.203-.27 1.57-.81.55-1.27.55-2.19zm15.06-2.92c-.227-.187-.553-.367-.98-.54a3.685 3.685 0 0 0-1.4-.26c-.533 0-.99.097-1.37.29-.38.193-.69.46-.93.8a3.38 3.38 0 0 0-.52 1.21 6.72 6.72 0 0 0-.16 1.5c0 1.213.3 2.15.9 2.81.6.66 1.4.99 2.4.99.507 0 .93-.023 1.27-.07a6.02 6.02 0 0 0 .79-.15V13.8zm0-7l1.86-.32V21.7c-.427.12-.973.24-1.64.36-.667.12-1.433.18-2.3.18-.8 0-1.52-.127-2.16-.38a4.629 4.629 0 0 1-1.64-1.08 4.772 4.772 0 0 1-1.05-1.71c-.247-.673-.37-1.43-.37-2.27 0-.8.103-1.533.31-2.2.207-.667.51-1.24.91-1.72s.89-.853 1.47-1.12c.58-.267 1.243-.4 1.99-.4.6 0 1.13.08 1.59.24.46.16.803.313 1.03.46V6.8zm13.24 10c0 .827-.12 1.573-.36 2.24a5.123 5.123 0 0 1-1.01 1.72c-.433.48-.95.85-1.55 1.11-.6.26-1.253.39-1.96.39-.707 0-1.36-.13-1.96-.39-.6-.26-1.117-.63-1.55-1.11a5.123 5.123 0 0 1-1.01-1.72c-.24-.667-.36-1.413-.36-2.24 0-.813.12-1.557.36-2.23s.577-1.25 1.01-1.73c.433-.48.95-.85 1.55-1.11.6-.26 1.253-.39 1.96-.39.707 0 1.36.13 1.96.39.6.26 1.117.63 1.55 1.11.433.48.77 1.057 1.01 1.73s.36 1.417.36 2.23zm-1.94 0c0-1.173-.263-2.103-.79-2.79-.527-.687-1.243-1.03-2.15-1.03-.907 0-1.623.343-2.15 1.03-.527.687-.79 1.617-.79 2.79s.263 2.103.79 2.79c.527.687 1.243 1.03 2.15 1.03.907 0 1.623-.343 2.15-1.03.527-.687.79-1.617.79-2.79zm8.08 5.44c-.84 0-1.577-.133-2.21-.4a4.446 4.446 0 0 1-1.6-1.12 4.65 4.65 0 0 1-.97-1.71 7.092 7.092 0 0 1-.32-2.19c0-.8.117-1.533.35-2.2a5.195 5.195 0 0 1 .99-1.73c.427-.487.95-.867 1.57-1.14.62-.273 1.31-.41 2.07-.41.467 0 .933.04 1.4.12.467.08.913.207 1.34.38l-.42 1.58a4.474 4.474 0 0 0-.97-.32 5.48 5.48 0 0 0-1.17-.12c-1.04 0-1.837.327-2.39.98-.553.653-.83 1.607-.83 2.86 0 .56.063 1.073.19 1.54.127.467.327.867.6 1.2.273.333.623.59 1.05.77.427.18.947.27 1.56.27.493 0 .94-.047 1.34-.14a4.9 4.9 0 0 0 .94-.3l.26 1.56c-.107.067-.26.13-.46.19s-.427.113-.68.16c-.253.047-.523.087-.81.12a7.19 7.19 0 0 1-.83.05zm6.2-1.58c.76 0 1.323-.1 1.69-.3.367-.2.55-.52.55-.96 0-.453-.18-.813-.54-1.08-.36-.267-.953-.567-1.78-.9-.4-.16-.783-.323-1.15-.49a4.033 4.033 0 0 1-.95-.59c-.267-.227-.48-.5-.64-.82-.16-.32-.24-.713-.24-1.18 0-.92.34-1.65 1.02-2.19.68-.54 1.607-.81 2.78-.81.293 0 .587.017.88.05.293.033.567.073.82.12s.477.097.67.15c.193.053.343.1.45.14l-.34 1.6c-.2-.107-.513-.217-.94-.33-.427-.113-.94-.17-1.54-.17-.52 0-.973.103-1.36.31-.387.207-.58.53-.58.97 0 .227.043.427.13.6.087.173.22.33.4.47.18.14.403.27.67.39s.587.247.96.38c.493.187.933.37 1.32.55.387.18.717.39.99.63s.483.53.63.87c.147.34.22.757.22 1.25 0 .96-.357 1.687-1.07 2.18-.713.493-1.73.74-3.05.74-.92 0-1.64-.077-2.16-.23-.52-.153-.873-.27-1.06-.35l.34-1.6c.213.08.553.2 1.02.36.467.16 1.087.24 1.86.24z" fill-rule="nonzero"/></g></svg>
